<svg width="32" height="29" viewBox="0 0 32 29" fill="none" xmlns="http://www.w3.org/2000/svg">
<path d="M20.1627 17.6131H12.1237" stroke="#181818" stroke-width="2.5" stroke-linecap="round" stroke-linejoin="round"/>
<path d="M24.4341 8.83871H30.263V17.6131H27.5719" stroke="#181818" stroke-width="2.5" stroke-linecap="round" stroke-linejoin="round"/>
<path d="M4.72588 17.6131H1.737V8.83871H7.56588" stroke="#181818" stroke-width="2.5" stroke-linecap="round" stroke-linejoin="round"/>
<path d="M7.56586 8.83869L9.69586 2H22.3156L24.4341 8.83869" stroke="#181818" stroke-width="2.5" stroke-linecap="round" stroke-linejoin="round"/>
<path d="M8.42477 21.357C10.4676 21.357 12.1236 19.6808 12.1236 17.6131C12.1236 15.5454 10.4676 13.8692 8.42477 13.8692C6.38194 13.8692 4.72589 15.5454 4.72589 17.6131C4.72589 19.6808 6.38194 21.357 8.42477 21.357Z" stroke="#181818" stroke-width="2.5" stroke-linecap="round" stroke-linejoin="round"/>
<path d="M23.873 21.357C25.9158 21.357 27.5719 19.6808 27.5719 17.6131C27.5719 15.5454 25.9158 13.8692 23.873 13.8692C21.8302 13.8692 20.1741 15.5454 20.1741 17.6131C20.1741 19.6808 21.8302 21.357 23.873 21.357Z" stroke="#181818" stroke-width="2.5" stroke-linecap="round" stroke-linejoin="round"/>
<path d="M4.8175 18.4708V18.4826H4.82908" stroke="#181818" stroke-width="2.5" stroke-linecap="round" stroke-linejoin="round"/>
<path d="M10.0967 25.5395C11.8602 26.4784 13.8643 27 15.9943 27C18.1243 27 20.2199 26.4552 22.0178 25.4932" stroke="#181818" stroke-width="2.5" stroke-linecap="round" stroke-linejoin="round"/>
</svg>
