<svg width="24" height="24" viewBox="0 0 24 24" fill="none" xmlns="http://www.w3.org/2000/svg">
<path d="M3 7C3 4.79086 4.79086 3 7 3V3C9.20914 3 11 4.79086 11 7V11H7C4.79086 11 3 9.20914 3 7V7Z" stroke="#808080" stroke-width="1.5" stroke-linejoin="round"/>
<path d="M3 17C3 14.7909 4.79086 13 7 13H11V17C11 19.2091 9.20914 21 7 21V21C4.79086 21 3 19.2091 3 17V17Z" stroke="#808080" stroke-width="1.5" stroke-linejoin="round"/>
<path d="M13 7C13 4.79086 14.7909 3 17 3V3C19.2091 3 21 4.79086 21 7V7C21 9.20914 19.2091 11 17 11H13V7Z" stroke="#808080" stroke-width="1.5" stroke-linejoin="round"/>
<path d="M13 13H17C19.2091 13 21 14.7909 21 17V17C21 19.2091 19.2091 21 17 21V21C14.7909 21 13 19.2091 13 17V13Z" stroke="#808080" stroke-width="1.5" stroke-linejoin="round"/>
</svg>
