<svg width="266" height="200" viewBox="0 0 266 200" fill="none" xmlns="http://www.w3.org/2000/svg">
<path d="M133 166C206.454 166 266 153.017 266 136.999C266 120.982 206.454 108 133 108C59.5464 108 0 120.983 0 136.999C0 153.015 59.5464 166 133 166Z" fill="#525252"/>
<path d="M229 53.2L186.651 6.14646C185.851 4.67659 184.685 3.43253 183.262 2.53197C181.839 1.63141 180.208 1.10412 178.521 1H87.4746C85.7886 1.10422 84.1573 1.63107 82.7347 2.5308C81.3122 3.43053 80.1454 4.67344 79.3445 6.14216L37 53.2043V91H229V53.2Z" stroke="#525252" stroke-width="1.5"/>
<path d="M173.123 65.9902C173.123 59.4246 177.273 54.0043 182.415 54H228.996V128.196C228.996 136.881 223.486 144 216.683 144H49.3127C42.5096 144 37 136.877 37 128.196V54H83.5809C88.7275 54 92.8724 59.4117 92.8724 65.9788V66.0691C92.8724 72.6348 97.0666 77.9361 102.209 77.9361H163.782C168.925 77.9361 173.119 72.5846 173.119 66.0189V65.9902H173.123Z" fill="#181818" stroke="#525252" stroke-width="1.5"/>
<path d="M97.052 195V182.4H98.15L106.844 193.344H106.268V182.4H107.582V195H106.484L97.808 184.056H98.384V195H97.052ZM115.277 195.09C114.365 195.09 113.543 194.886 112.811 194.478C112.091 194.058 111.521 193.488 111.101 192.768C110.681 192.036 110.471 191.202 110.471 190.266C110.471 189.318 110.681 188.484 111.101 187.764C111.521 187.044 112.091 186.48 112.811 186.072C113.531 185.664 114.353 185.46 115.277 185.46C116.213 185.46 117.041 185.664 117.761 186.072C118.493 186.48 119.063 187.044 119.471 187.764C119.891 188.484 120.101 189.318 120.101 190.266C120.101 191.202 119.891 192.036 119.471 192.768C119.063 193.488 118.493 194.058 117.761 194.478C117.029 194.886 116.201 195.09 115.277 195.09ZM115.277 193.956C115.961 193.956 116.567 193.806 117.095 193.506C117.623 193.194 118.037 192.762 118.337 192.21C118.649 191.646 118.805 190.998 118.805 190.266C118.805 189.522 118.649 188.874 118.337 188.322C118.037 187.77 117.623 187.344 117.095 187.044C116.567 186.732 115.967 186.576 115.295 186.576C114.623 186.576 114.023 186.732 113.495 187.044C112.967 187.344 112.547 187.77 112.235 188.322C111.923 188.874 111.767 189.522 111.767 190.266C111.767 190.998 111.923 191.646 112.235 192.21C112.547 192.762 112.967 193.194 113.495 193.506C114.023 193.806 114.617 193.956 115.277 193.956ZM127.691 195V182.4H132.821C134.165 182.4 135.341 182.67 136.349 183.21C137.369 183.738 138.161 184.476 138.725 185.424C139.289 186.372 139.571 187.464 139.571 188.7C139.571 189.936 139.289 191.028 138.725 191.976C138.161 192.924 137.369 193.668 136.349 194.208C135.341 194.736 134.165 195 132.821 195H127.691ZM129.023 193.848H132.749C133.865 193.848 134.831 193.632 135.647 193.2C136.475 192.756 137.117 192.15 137.573 191.382C138.029 190.602 138.257 189.708 138.257 188.7C138.257 187.68 138.029 186.786 137.573 186.018C137.117 185.25 136.475 184.65 135.647 184.218C134.831 183.774 133.865 183.552 132.749 183.552H129.023V193.848ZM148.214 195V192.912L148.16 192.57V189.078C148.16 188.274 147.932 187.656 147.476 187.224C147.032 186.792 146.366 186.576 145.478 186.576C144.866 186.576 144.284 186.678 143.732 186.882C143.18 187.086 142.712 187.356 142.328 187.692L141.752 186.738C142.232 186.33 142.808 186.018 143.48 185.802C144.152 185.574 144.86 185.46 145.604 185.46C146.828 185.46 147.77 185.766 148.43 186.378C149.102 186.978 149.438 187.896 149.438 189.132V195H148.214ZM144.956 195.09C144.248 195.09 143.63 194.976 143.102 194.748C142.586 194.508 142.19 194.184 141.914 193.776C141.638 193.356 141.5 192.876 141.5 192.336C141.5 191.844 141.614 191.4 141.842 191.004C142.082 190.596 142.466 190.272 142.994 190.032C143.534 189.78 144.254 189.654 145.154 189.654H148.412V190.608H145.19C144.278 190.608 143.642 190.77 143.282 191.094C142.934 191.418 142.76 191.82 142.76 192.3C142.76 192.84 142.97 193.272 143.39 193.596C143.81 193.92 144.398 194.082 145.154 194.082C145.874 194.082 146.492 193.92 147.008 193.596C147.536 193.26 147.92 192.78 148.16 192.156L148.448 193.038C148.208 193.662 147.788 194.16 147.188 194.532C146.6 194.904 145.856 195.09 144.956 195.09ZM155.897 195.09C155.009 195.09 154.325 194.85 153.845 194.37C153.365 193.89 153.125 193.212 153.125 192.336V183.462H154.403V192.264C154.403 192.816 154.541 193.242 154.817 193.542C155.105 193.842 155.513 193.992 156.041 193.992C156.605 193.992 157.073 193.83 157.445 193.506L157.895 194.424C157.643 194.652 157.337 194.82 156.977 194.928C156.629 195.036 156.269 195.09 155.897 195.09ZM151.433 186.612V185.55H157.283V186.612H151.433ZM166.143 195V192.912L166.089 192.57V189.078C166.089 188.274 165.861 187.656 165.405 187.224C164.961 186.792 164.295 186.576 163.407 186.576C162.795 186.576 162.213 186.678 161.661 186.882C161.109 187.086 160.641 187.356 160.257 187.692L159.681 186.738C160.161 186.33 160.737 186.018 161.409 185.802C162.081 185.574 162.789 185.46 163.533 185.46C164.757 185.46 165.699 185.766 166.359 186.378C167.031 186.978 167.367 187.896 167.367 189.132V195H166.143ZM162.885 195.09C162.177 195.09 161.559 194.976 161.031 194.748C160.515 194.508 160.119 194.184 159.843 193.776C159.567 193.356 159.429 192.876 159.429 192.336C159.429 191.844 159.543 191.4 159.771 191.004C160.011 190.596 160.395 190.272 160.923 190.032C161.463 189.78 162.183 189.654 163.083 189.654H166.341V190.608H163.119C162.207 190.608 161.571 190.77 161.211 191.094C160.863 191.418 160.689 191.82 160.689 192.3C160.689 192.84 160.899 193.272 161.319 193.596C161.739 193.92 162.327 194.082 163.083 194.082C163.803 194.082 164.421 193.92 164.937 193.596C165.465 193.26 165.849 192.78 166.089 192.156L166.377 193.038C166.137 193.662 165.717 194.16 165.117 194.532C164.529 194.904 163.785 195.09 162.885 195.09Z" fill="#DDDDDD"/>
</svg>
