<svg width="24" height="24" viewBox="0 0 24 24" fill="none" xmlns="http://www.w3.org/2000/svg">
<path d="M18.441 13.7277C18.2819 14.3277 18.0361 14.8916 17.7325 15.412L19.5325 17.212L17.1542 19.5904L15.3398 17.7759C14.8193 18.0795 14.2482 18.3108 13.6482 18.4627V21H10.2795V18.441C9.67952 18.2819 9.11566 18.0361 8.59518 17.7325L6.79518 19.5325L4.41687 17.1542L6.23133 15.3398C5.92771 14.8193 5.69639 14.2482 5.54458 13.6482H3V10.2795H5.56627C5.7253 9.67952 5.97108 9.11566 6.2747 8.59518L4.4747 6.79518L6.85301 4.41687L8.66747 6.23133C9.18795 5.92771 9.75904 5.69639 10.359 5.54458V3H13.7277V5.56627C14.3277 5.7253 14.8916 5.97108 15.412 6.2747L17.212 4.4747L19.5904 6.85301L17.7759 8.66747C18.0795 9.18795 18.3108 9.75904 18.4627 10.359H21V13.7277H18.4337H18.441Z" stroke="#808080" stroke-width="1.5" stroke-linecap="round" stroke-linejoin="round"/>
<path d="M12 14.6602C13.4692 14.6602 14.6603 13.4692 14.6603 12C14.6603 10.5308 13.4692 9.33975 12 9.33975C10.5308 9.33975 9.33978 10.5308 9.33978 12C9.33978 13.4692 10.5308 14.6602 12 14.6602Z" stroke="#808080" stroke-width="1.5" stroke-linecap="round" stroke-linejoin="round"/>
</svg>
