<svg width="36" height="36" viewBox="0 0 36 36" fill="none" xmlns="http://www.w3.org/2000/svg">
<path d="M10.0512 27.4701C10.1322 29.6577 11.8793 31.4055 14.0314 31.4055C16.1834 31.4055 17.7801 29.8004 17.9884 27.7316" stroke="#181818" stroke-width="2.5" stroke-linecap="round" stroke-linejoin="round"/>
<path d="M17.9769 27.7435C18.1851 29.8123 19.8744 31.4174 21.9339 31.4174C23.9934 31.4174 25.8331 29.6697 25.9141 27.482" stroke="#181818" stroke-width="2.5" stroke-linecap="round" stroke-linejoin="round"/>
<path d="M25.914 27.4701C25.995 29.6577 27.7421 31.4055 29.8942 31.4055C30.438 31.4055 30.9586 31.2985 31.4214 31.0964" stroke="#181818" stroke-width="2.5" stroke-linecap="round" stroke-linejoin="round"/>
<path d="M4.57849 31.1083C5.0413 31.2985 5.53882 31.4055 6.07105 31.4055C8.22312 31.4055 9.97023 29.6577 10.0512 27.4701" stroke="#181818" stroke-width="2.5" stroke-linecap="round" stroke-linejoin="round"/>
<path d="M5.157 23.5346L4.57849 17.3282H31.4215L30.843 23.5584" stroke="#181818" stroke-width="2.5" stroke-linecap="round" stroke-linejoin="round"/>
<path d="M25.914 10.2302H10.0859V17.3283H25.914V10.2302Z" stroke="#181818" stroke-width="2.5" stroke-linecap="round" stroke-linejoin="round"/>
<path d="M21.5405 10.2302H14.4711L16.114 4.59448H23.1835L21.5405 10.2302Z" stroke="#181818" stroke-width="2.5" stroke-linecap="round" stroke-linejoin="round"/>
<path d="M10.0512 27.4701H10.0397" stroke="#181818" stroke-width="2.5" stroke-linecap="round" stroke-linejoin="round"/>
</svg>
